<?xml version="1.0" standalone="no"?>
<!DOCTYPE svg PUBLIC "-//W3C//DTD SVG 20010904//EN"
 "http://www.w3.org/TR/2001/REC-SVG-20010904/DTD/svg10.dtd">
<svg version="1.0" xmlns="http://www.w3.org/2000/svg"
 width="128.000000pt" height="128.000000pt" viewBox="0 0 128.000000 128.000000"
 preserveAspectRatio="xMidYMid meet">

<g transform="translate(0.000000,128.000000) scale(0.100000,-0.100000)"
fill="#000000" stroke="none">
<path d="M302 1086 c-130 -43 -198 -168 -190 -350 4 -75 9 -102 34 -151 41
-85 153 -194 318 -308 180 -125 175 -125 328 -16 164 118 241 183 286 242 69
90 85 132 90 230 8 162 -44 278 -149 331 -131 65 -292 6 -357 -130 -8 -19 -19
-34 -22 -34 -3 0 -14 15 -22 34 -58 120 -202 189 -316 152z"/>
</g>
</svg>
